<svg width="33" height="32" viewBox="0 0 33 32" fill="none" xmlns="http://www.w3.org/2000/svg">
<g clip-path="url(#clip0_1_716)">
<path d="M26.0328 0.00201416H6.96319C3.39163 0.00201416 0.5 2.89364 0.5 6.4652V25.5388C0.5 29.1064 3.39163 31.998 6.96319 31.998H26.0368C29.6044 31.998 32.5 29.1064 32.5 25.5348V6.4652C32.496 2.89364 29.6044 0.00201416 26.0328 0.00201416Z" fill="url(#paint0_linear_1_716)"/>
<path d="M16.3619 7.35309L17.0099 6.23321C17.4098 5.53328 18.3017 5.29734 19.0016 5.69728C19.7016 6.09721 19.9375 6.98909 19.5376 7.68903L13.2943 18.4957H17.8097C19.2736 18.4957 20.0934 20.2155 19.4576 21.4073H6.21924C5.41137 21.4073 4.76343 20.7594 4.76343 19.9515C4.76343 19.1437 5.41137 18.4957 6.21924 18.4957H9.9308L14.6822 10.2607L13.1984 7.68503C12.7985 6.98509 13.0344 6.10121 13.7344 5.69328C14.4343 5.29334 15.3182 5.52928 15.7261 6.22921L16.3619 7.35309Z" fill="white"/>
<path d="M10.7466 22.9071L9.34682 25.3348C8.94688 26.0348 8.05501 26.2707 7.35507 25.8708C6.65513 25.4708 6.41919 24.579 6.81913 23.879L7.85901 22.0793C9.03482 21.7153 9.99069 21.9953 10.7466 22.9071Z" fill="white"/>
<path d="M22.8011 18.5037H26.5886C27.3965 18.5037 28.0444 19.1517 28.0444 19.9595C28.0444 20.7674 27.3965 21.4153 26.5886 21.4153H24.4849L25.9047 23.879C26.3046 24.579 26.0687 25.4628 25.3688 25.8708C24.6688 26.2707 23.7849 26.0348 23.377 25.3348C20.9853 21.1873 19.1895 18.0838 17.9977 16.016C16.7778 13.9123 17.6498 11.8005 18.5096 11.0847C19.4656 12.7245 20.8934 15.2002 22.8011 18.5037Z" fill="white"/>
</g>
<defs>
<linearGradient id="paint0_linear_1_716" x1="16.5" y1="0.00201416" x2="16.5" y2="31.998" gradientUnits="userSpaceOnUse">
<stop stop-color="#00BFFC"/>
<stop offset="1" stop-color="#0073F6"/>
</linearGradient>
<clipPath id="clip0_1_716">
<rect width="32" height="32" fill="white" transform="translate(0.5)"/>
</clipPath>
</defs>
</svg>
