<svg width="33" height="32" viewBox="0 0 33 32" fill="none" xmlns="http://www.w3.org/2000/svg">
<path d="M4.53711 0.734506L22.5478 11.1302L29.4817 15.136C30.1323 15.5274 30.1376 16.4626 29.4918 16.8591L29.4613 16.8796L4.55227 31.2606L4.53182 31.2707C4.27775 31.4131 3.99817 31.4283 3.7542 31.3571C3.34758 31.2351 3.0271 30.8641 3.0271 30.3812V1.61896C3.0271 1.13607 3.34734 0.765063 3.7542 0.643078C4.00322 0.571619 4.2828 0.587018 4.53711 0.734506Z" fill="#47BCFF"/>
<path d="M4.53707 0.734321L22.5478 11.13L18.0235 16L3.75415 0.642652C4.00317 0.571434 4.28275 0.586832 4.53707 0.734321Z" fill="#0BDF74"/>
<path d="M22.5477 11.13L29.4816 15.1358C30.1322 15.5272 30.1375 16.4625 29.4917 16.859L29.4612 16.8794L22.5477 20.8647L18.0234 16L22.5477 11.13Z" fill="#FDBA21"/>
<path d="M18.0235 16L22.5478 20.865L4.55223 31.2606L4.53177 31.2707C4.2777 31.4132 3.99812 31.4283 3.75415 31.3571L18.0235 16Z" fill="#FB434C"/>
</svg>
